<svg xmlns="http://www.w3.org/2000/svg" viewBox="0 0 487.1 469.19"><defs><style>.cls-1{fill:#808285;}.cls-2{fill:#bde291;}.cls-3{fill:#fff;}.cls-4{fill:#d6d7d8;}</style></defs><title>ecran vertFichier 1svg</title><g id="Calque_2" data-name="Calque 2"><g id="Calque_1-2" data-name="Calque 1"><path class="cls-1" d="M315.77,59.58c.08-8.28-4.69-13.42-11.72-13.5s-12,5-12.11,13.25l-.43,40.89c-.08,8.27,4.82,13.29,11.84,13.36s11.91-4.84,12-13.11ZM303.19,129.7c-16-.17-29.79-10.78-29.59-29.51L274,58.86c.2-18.73,14.22-29.06,30.2-28.89s29.65,10.78,29.45,29.51l-.42,41.33c-.2,18.73-14.08,29.06-30.06,28.89"/><polygon class="cls-2" points="351.61 333.35 1.12 333.35 1.12 0 187.39 0 351.61 148.21 351.61 333.35"/><rect class="cls-1" x="1.12" y="244.22" width="350.49" height="89.13"/><path class="cls-3" d="M296.29,235a36.27,36.27,0,0,1-24.39,63.11l1.9,0H187.48l0,0V172h84.49l0,0A36.27,36.27,0,0,1,296.29,235Zm-83.34-9H264a17.51,17.51,0,0,0,17.5-17.5l-.05-.1A17.49,17.49,0,0,0,264,191H212.91v35m51.5,18.18H213v35h51.46l-.37,0a17.51,17.51,0,0,0,0-35Z"/><polygon class="cls-3" points="122.31 248.9 101.83 197.77 80.53 248.9 72.89 267.92 60.32 297.97 37.95 298 88.67 171.9 114.91 171.9 171.06 297.97 142.69 297.97 129.95 267.92 122.31 248.9"/><rect class="cls-1" x="1.05" y="355.94" width="3.95" height="22.58"/><polygon class="cls-1" points="13.04 355.94 17.22 355.94 27.54 372.57 27.6 372.57 27.6 355.94 31.36 355.94 31.36 378.52 27.19 378.52 16.91 361.92 16.81 361.92 16.81 378.52 13.04 378.52 13.04 355.94"/><path class="cls-1" d="M59.09,378.52H56.56l-.6-2.66a9.34,9.34,0,0,1-3.16,2.5,8.9,8.9,0,0,1-3.65.7,10.52,10.52,0,0,1-4.53-.94,9.93,9.93,0,0,1-3.4-2.54,11.35,11.35,0,0,1-2.14-3.77,14.48,14.48,0,0,1,0-9.14,11.56,11.56,0,0,1,2.14-3.77,10.24,10.24,0,0,1,3.4-2.56,10.52,10.52,0,0,1,4.53-.95,12.49,12.49,0,0,1,3.5.49,9.41,9.41,0,0,1,3,1.46,7.94,7.94,0,0,1,2.15,2.42,8.37,8.37,0,0,1,1.08,3.36H55a4.76,4.76,0,0,0-.68-1.95A4.94,4.94,0,0,0,53,359.76a5.89,5.89,0,0,0-1.76-.86,7.39,7.39,0,0,0-2.07-.28,6.34,6.34,0,0,0-3.1.72,6.09,6.09,0,0,0-2.14,2,8.69,8.69,0,0,0-1.22,2.77,12.72,12.72,0,0,0,0,6.33,8.59,8.59,0,0,0,1.22,2.77,6.06,6.06,0,0,0,2.14,1.94,6.24,6.24,0,0,0,3.1.74,7.71,7.71,0,0,0,2.7-.4,5.54,5.54,0,0,0,2-1.23,5.34,5.34,0,0,0,1.22-2,8.41,8.41,0,0,0,.44-2.59h-6v-3h9.62Z"/><polygon class="cls-1" points="66.87 355.94 83.14 355.94 83.14 359.34 70.83 359.34 70.83 365.26 82.22 365.26 82.22 368.49 70.83 368.49 70.83 375.1 83.36 375.1 83.36 378.52 66.87 378.52 66.87 355.94"/><polygon class="cls-1" points="90.08 355.94 94.26 355.94 104.57 372.57 104.64 372.57 104.64 355.94 108.4 355.94 108.4 378.52 104.22 378.52 93.94 361.92 93.85 361.92 93.85 378.52 90.08 378.52 90.08 355.94"/><rect class="cls-1" x="116.46" y="355.94" width="3.95" height="22.58"/><polygon class="cls-1" points="128.53 355.94 144.79 355.94 144.79 359.34 132.49 359.34 132.49 365.26 143.88 365.26 143.88 368.49 132.49 368.49 132.49 375.1 145.02 375.1 145.02 378.52 128.53 378.52 128.53 355.94"/><path class="cls-1" d="M151.33,355.94h3.95v13.15c0,.76.05,1.53.11,2.31a5.27,5.27,0,0,0,.64,2.1,3.91,3.91,0,0,0,1.58,1.54,7.75,7.75,0,0,0,6,0,3.91,3.91,0,0,0,1.58-1.54,5.12,5.12,0,0,0,.64-2.1c.07-.78.11-1.55.11-2.31V355.94h4v14.45a9.81,9.81,0,0,1-.67,3.8,7.12,7.12,0,0,1-1.87,2.7,8,8,0,0,1-2.94,1.63,13.57,13.57,0,0,1-7.58,0,7.83,7.83,0,0,1-2.93-1.63,7.28,7.28,0,0,1-1.89-2.7,10,10,0,0,1-.66-3.8Z"/><path class="cls-1" d="M181.77,366.21h6.5a4.1,4.1,0,0,0,2.87-.9,3.47,3.47,0,0,0,1-2.7,4.23,4.23,0,0,0-.32-1.76,2.53,2.53,0,0,0-.87-1.05,3.25,3.25,0,0,0-1.27-.52,8.83,8.83,0,0,0-1.47-.13h-6.43Zm-4-10.27h10.79c2.49,0,4.36.53,5.6,1.61a5.58,5.58,0,0,1,1.87,4.49,6.32,6.32,0,0,1-.48,2.67,5.67,5.67,0,0,1-1.1,1.71,4.49,4.49,0,0,1-1.25.93c-.42.19-.72.32-.91.39v.05a4.05,4.05,0,0,1,1.1.32,3.16,3.16,0,0,1,1.09.81,4.17,4.17,0,0,1,.83,1.44,6.15,6.15,0,0,1,.34,2.21,20,20,0,0,0,.3,3.62,4.73,4.73,0,0,0,.93,2.33H192.7a3.7,3.7,0,0,1-.53-1.61c0-.59-.07-1.16-.07-1.72a17,17,0,0,0-.19-2.67,4.82,4.82,0,0,0-.71-1.86,2.85,2.85,0,0,0-1.37-1.09,6.08,6.08,0,0,0-2.22-.35h-5.84v9.3h-4Z"/><path class="cls-1" d="M206.18,371a5.17,5.17,0,0,0,.44,2.22,4,4,0,0,0,1.23,1.5,5.35,5.35,0,0,0,1.82.85,8.78,8.78,0,0,0,2.23.28,7.09,7.09,0,0,0,2.21-.31,4.4,4.4,0,0,0,1.5-.77,3,3,0,0,0,.82-1.09,3.48,3.48,0,0,0,.25-1.25,2.66,2.66,0,0,0-.59-1.92,3.25,3.25,0,0,0-1.27-.87c-.81-.29-1.74-.57-2.8-.84s-2.39-.6-4-1a8.77,8.77,0,0,1-2.42-1,5.9,5.9,0,0,1-1.53-1.38,4.88,4.88,0,0,1-.81-1.61,6.43,6.43,0,0,1-.24-1.75,5.81,5.81,0,0,1,.72-2.95,6.22,6.22,0,0,1,1.88-2.07,8.14,8.14,0,0,1,2.65-1.22,11.5,11.5,0,0,1,3-.4,11.7,11.7,0,0,1,3.33.46,8.42,8.42,0,0,1,2.76,1.38,6.76,6.76,0,0,1,1.88,2.26,6.64,6.64,0,0,1,.69,3.12h-3.95a3.82,3.82,0,0,0-1.49-3.09,5.9,5.9,0,0,0-3.39-.9,7,7,0,0,0-1.42.15,4.21,4.21,0,0,0-1.33.47,2.94,2.94,0,0,0-1,.9,2.38,2.38,0,0,0-.4,1.42,2.43,2.43,0,0,0,.74,1.88,4.77,4.77,0,0,0,1.95,1l1,.27c.58.16,1.22.34,1.94.52l2.1.56c.69.17,1.18.31,1.47.39a6.29,6.29,0,0,1,1.94,1,5.94,5.94,0,0,1,1.37,1.37,5.76,5.76,0,0,1,1.09,3.43,6.38,6.38,0,0,1-.77,3.25,6.49,6.49,0,0,1-2,2.19,8.71,8.71,0,0,1-2.88,1.25,13.89,13.89,0,0,1-6.93-.08,8.24,8.24,0,0,1-3-1.45,7,7,0,0,1-2-2.52,8.29,8.29,0,0,1-.8-3.62Z"/><path class="cls-1" d="M255.28,363.12a7.83,7.83,0,0,0-.7-1.81,4.76,4.76,0,0,0-1.14-1.42,4.94,4.94,0,0,0-1.63-.94,6.39,6.39,0,0,0-2.15-.33,6.33,6.33,0,0,0-3.13.73,6.23,6.23,0,0,0-2.14,1.94,8.9,8.9,0,0,0-1.21,2.77,12.72,12.72,0,0,0,0,6.33,8.8,8.8,0,0,0,1.21,2.77,6.23,6.23,0,0,0,2.14,1.94,6.33,6.33,0,0,0,3.13.73,5.51,5.51,0,0,0,2.33-.46,5.33,5.33,0,0,0,1.74-1.26,6,6,0,0,0,1.14-1.89,8.87,8.87,0,0,0,.54-2.31h3.86a11,11,0,0,1-.87,3.71,9.25,9.25,0,0,1-2,2.89,8.92,8.92,0,0,1-3,1.89,10.39,10.39,0,0,1-3.76.66,10.55,10.55,0,0,1-4.55-.94,9.93,9.93,0,0,1-3.4-2.54,11.16,11.16,0,0,1-2.13-3.77,13.79,13.79,0,0,1-.75-4.58,13.62,13.62,0,0,1,.75-4.55,11.21,11.21,0,0,1,2.13-3.78,10.24,10.24,0,0,1,3.4-2.56,10.55,10.55,0,0,1,4.55-.95,12.33,12.33,0,0,1,3.57.52,9.42,9.42,0,0,1,3,1.52,7.86,7.86,0,0,1,2.06,2.42,8.34,8.34,0,0,1,1,3.27Z"/><rect class="cls-1" x="266.25" y="355.94" width="3.96" height="22.58"/><polygon class="cls-1" points="275.91 355.94 280.03 355.94 285.68 373.81 285.75 373.81 291.54 355.94 295.56 355.94 287.84 378.52 283.44 378.52 275.91 355.94"/><rect class="cls-1" x="301.25" y="355.94" width="3.96" height="22.58"/><polygon class="cls-1" points="313.34 355.94 317.29 355.94 317.29 375.1 328.77 375.1 328.77 378.52 313.34 378.52 313.34 355.94"/><path class="cls-1" d="M337.56,371a5,5,0,0,0,.44,2.22,3.94,3.94,0,0,0,1.24,1.5,5.21,5.21,0,0,0,1.81.85,8.84,8.84,0,0,0,2.23.28,7.16,7.16,0,0,0,2.22-.31,4.54,4.54,0,0,0,1.49-.77,2.91,2.91,0,0,0,.82-1.09,3.28,3.28,0,0,0,.25-1.25,2.71,2.71,0,0,0-.58-1.92,3.25,3.25,0,0,0-1.29-.87,29.07,29.07,0,0,0-2.79-.84c-1.07-.26-2.39-.6-3.95-1a8.45,8.45,0,0,1-2.41-1,5.8,5.8,0,0,1-1.54-1.38,4.5,4.5,0,0,1-.8-1.61,6.43,6.43,0,0,1-.24-1.75,5.91,5.91,0,0,1,.71-2.95,6.15,6.15,0,0,1,1.89-2.07,8,8,0,0,1,2.65-1.22,11.4,11.4,0,0,1,3-.4,11.62,11.62,0,0,1,3.34.46,8.27,8.27,0,0,1,2.75,1.38,6.67,6.67,0,0,1,1.89,2.26,6.77,6.77,0,0,1,.7,3.12h-4a3.82,3.82,0,0,0-1.49-3.09,5.92,5.92,0,0,0-3.39-.9,6.9,6.9,0,0,0-1.41.15,4.27,4.27,0,0,0-1.34.47,2.85,2.85,0,0,0-1,.9,2.73,2.73,0,0,0,.35,3.3,4.6,4.6,0,0,0,1.94,1l1,.27c.58.16,1.23.34,1.94.52l2.11.56c.68.17,1.17.31,1.47.39a6.46,6.46,0,0,1,1.93,1,5.92,5.92,0,0,1,2.2,3A6.39,6.39,0,0,1,352,372a6.49,6.49,0,0,1-.78,3.25,6.42,6.42,0,0,1-2.05,2.19,8.7,8.7,0,0,1-2.86,1.25,13.93,13.93,0,0,1-6.94-.08,8.45,8.45,0,0,1-3-1.45,7.11,7.11,0,0,1-2-2.52,8.29,8.29,0,0,1-.79-3.62Z"/><path class="cls-1" d="M20.76,423.59H18.23l-.6-2.66a9.52,9.52,0,0,1-3.17,2.5,9,9,0,0,1-3.63.69,10.61,10.61,0,0,1-4.54-.93,10,10,0,0,1-3.41-2.54,11.56,11.56,0,0,1-2.14-3.77,14.51,14.51,0,0,1,0-9.15A11.31,11.31,0,0,1,2.88,404a10.17,10.17,0,0,1,3.41-2.57,10.47,10.47,0,0,1,4.54-.95,12.52,12.52,0,0,1,3.49.49,9.52,9.52,0,0,1,3,1.46,8.22,8.22,0,0,1,2.15,2.42,8.37,8.37,0,0,1,1.07,3.35H16.64a4.87,4.87,0,0,0-2-3.35,5.86,5.86,0,0,0-1.76-.85,7.07,7.07,0,0,0-2.06-.29,6.37,6.37,0,0,0-3.12.73,6.08,6.08,0,0,0-2.14,1.95,8.59,8.59,0,0,0-1.22,2.77,13,13,0,0,0,0,6.32,8.59,8.59,0,0,0,1.22,2.77,6.18,6.18,0,0,0,2.14,1.95,6.37,6.37,0,0,0,3.12.72,7.24,7.24,0,0,0,2.68-.39,5.4,5.4,0,0,0,2-1.23,5.3,5.3,0,0,0,1.22-2,8.34,8.34,0,0,0,.44-2.58h-6v-3h9.62Z"/><polygon class="cls-1" points="34.71 401 50.97 401 50.97 404.41 38.66 404.41 38.66 410.33 50.05 410.33 50.05 413.56 38.66 413.56 38.66 420.17 51.2 420.17 51.2 423.58 34.71 423.58 34.71 401"/><path class="cls-1" d="M73.38,403.68a6.42,6.42,0,0,0-3.12.73,6.14,6.14,0,0,0-2.13,1.95,8.81,8.81,0,0,0-1.22,2.77,12.68,12.68,0,0,0,0,6.32,8.81,8.81,0,0,0,1.22,2.77,6.23,6.23,0,0,0,2.13,1.95,7.12,7.12,0,0,0,6.24,0,6.27,6.27,0,0,0,2.14-1.95,9,9,0,0,0,1.21-2.77,12.68,12.68,0,0,0,0-6.32,9,9,0,0,0-1.21-2.77,6.17,6.17,0,0,0-2.14-1.95,6.42,6.42,0,0,0-3.12-.73m0-3.23a10.54,10.54,0,0,1,4.54.95,10.23,10.23,0,0,1,3.4,2.57,11.31,11.31,0,0,1,2.14,3.76,14.51,14.51,0,0,1,0,9.15,11.56,11.56,0,0,1-2.14,3.77,10,10,0,0,1-3.4,2.54,11.55,11.55,0,0,1-9.08,0,10.12,10.12,0,0,1-3.4-2.54,11.19,11.19,0,0,1-2.13-3.77,14.33,14.33,0,0,1,0-9.15A11,11,0,0,1,65.44,404a10.33,10.33,0,0,1,3.4-2.57,10.54,10.54,0,0,1,4.54-.95"/><polygon class="cls-1" points="94.58 401 112.86 401 112.86 404.41 105.69 404.41 105.69 423.58 101.73 423.58 101.73 404.41 94.58 404.41 94.58 401"/><polygon class="cls-1" points="124.9 401 141.17 401 141.17 404.41 128.86 404.41 128.86 410.33 140.25 410.33 140.25 413.56 128.86 413.56 128.86 420.17 141.39 420.17 141.39 423.58 124.9 423.58 124.9 401"/><path class="cls-1" d="M169.2,408.17a7.8,7.8,0,0,0-.69-1.8,5,5,0,0,0-2.76-2.35,6.5,6.5,0,0,0-2.17-.34,6.37,6.37,0,0,0-3.12.73,6,6,0,0,0-2.13,1.95,8.61,8.61,0,0,0-1.23,2.77,13,13,0,0,0,0,6.32,8.61,8.61,0,0,0,1.23,2.77,6.06,6.06,0,0,0,2.13,1.95,6.37,6.37,0,0,0,3.12.72,5.71,5.71,0,0,0,2.34-.45,5.21,5.21,0,0,0,1.73-1.27,5.74,5.74,0,0,0,1.15-1.89,8.88,8.88,0,0,0,.53-2.3h3.87a10.74,10.74,0,0,1-.88,3.7,8.78,8.78,0,0,1-5,4.78,10.18,10.18,0,0,1-3.76.66,10.65,10.65,0,0,1-4.54-.93,10,10,0,0,1-3.41-2.54,11.82,11.82,0,0,1-2.13-3.77,14.51,14.51,0,0,1,0-9.15,11.46,11.46,0,0,1,2.13-3.76A10.17,10.17,0,0,1,159,401.4a10.5,10.5,0,0,1,4.54-.95,12.23,12.23,0,0,1,3.57.52,9.53,9.53,0,0,1,3,1.52,8.13,8.13,0,0,1,2.07,2.42,8.52,8.52,0,0,1,1,3.26Z"/><polygon class="cls-1" points="186.26 401 190.21 401 190.21 409.98 200.49 409.98 200.49 401 204.45 401 204.45 423.58 200.49 423.58 200.49 413.4 190.21 413.4 190.21 423.58 186.26 423.58 186.26 401"/><polygon class="cls-1" points="218.63 401 222.81 401 233.12 417.64 233.18 417.64 233.18 401 236.94 401 236.94 423.58 232.77 423.58 222.49 406.97 222.39 406.97 222.39 423.58 218.63 423.58 218.63 401"/><rect class="cls-1" x="251.18" y="401" width="3.95" height="22.58"/><path class="cls-1" d="M279.38,418.36l1.9-2.18,2.75,2.41a7.76,7.76,0,0,0,1.52-2.95,13.06,13.06,0,0,0,.45-3.35,12.51,12.51,0,0,0-.41-3.16,8.59,8.59,0,0,0-1.22-2.77,6,6,0,0,0-2.13-1.95,7,7,0,0,0-6.24,0,6.14,6.14,0,0,0-2.13,1.95,8.81,8.81,0,0,0-1.22,2.77,12.68,12.68,0,0,0,0,6.32,8.71,8.71,0,0,0,1.22,2.77,6.23,6.23,0,0,0,2.13,1.95,6.42,6.42,0,0,0,3.12.72,6.16,6.16,0,0,0,1.28-.12,5,5,0,0,0,1.25-.41Zm10.29,5.13-1.94,2.15-3.29-2.88a9.65,9.65,0,0,1-2.63,1.05,11.88,11.88,0,0,1-2.69.31,10.63,10.63,0,0,1-4.53-.93,9.87,9.87,0,0,1-3.41-2.54,11.36,11.36,0,0,1-2.13-3.77,13.85,13.85,0,0,1-.75-4.59,13.7,13.7,0,0,1,.75-4.55,11.07,11.07,0,0,1,2.13-3.77,10.07,10.07,0,0,1,3.41-2.57,11.3,11.3,0,0,1,9.07,0,10.37,10.37,0,0,1,3.41,2.57,11.24,11.24,0,0,1,2.13,3.77,13.7,13.7,0,0,1,.74,4.55,14.53,14.53,0,0,1-.19,2.36,13.32,13.32,0,0,1-.57,2.32,11.45,11.45,0,0,1-1,2.17,7.59,7.59,0,0,1-1.46,1.82Z"/><path class="cls-1" d="M302.88,401h4v13.16c0,.76,0,1.53.11,2.31a5.31,5.31,0,0,0,.63,2.1,4.11,4.11,0,0,0,1.58,1.54,7.87,7.87,0,0,0,6,0,4.21,4.21,0,0,0,1.59-1.54,5.16,5.16,0,0,0,.63-2.1,22.59,22.59,0,0,0,.11-2.31V401h3.95v14.45a9.78,9.78,0,0,1-.66,3.8,7.18,7.18,0,0,1-1.88,2.7,7.57,7.57,0,0,1-2.93,1.63,13.61,13.61,0,0,1-7.59,0,7.57,7.57,0,0,1-2.93-1.63,7.18,7.18,0,0,1-1.88-2.7,9.78,9.78,0,0,1-.67-3.8Z"/><polygon class="cls-1" points="335.55 401 351.81 401 351.81 404.41 339.5 404.41 339.5 410.33 350.89 410.33 350.89 413.56 339.5 413.56 339.5 420.17 352.04 420.17 352.04 423.58 335.55 423.58 335.55 401"/><polygon class="cls-1" points="1.05 446.06 17.31 446.06 17.31 449.48 5 449.48 5 455.39 16.39 455.39 16.39 458.62 5 458.62 5 465.23 17.53 465.23 17.53 468.65 1.05 468.65 1.05 446.06"/><polygon class="cls-1" points="27.58 446.06 31.75 446.06 42.07 462.7 42.13 462.7 42.13 446.06 45.9 446.06 45.9 468.65 41.72 468.65 31.44 452.04 31.34 452.04 31.34 468.65 27.58 468.65 27.58 446.06"/><polygon class="cls-1" points="54.85 446.06 58.97 446.06 64.63 463.93 64.7 463.93 70.49 446.06 74.51 446.06 66.78 468.65 62.39 468.65 54.85 446.06"/><rect class="cls-1" x="83.52" y="446.06" width="3.95" height="22.58"/><path class="cls-1" d="M102.88,456.34h6.49a4.12,4.12,0,0,0,2.87-.9,3.5,3.5,0,0,0,1-2.7,4.36,4.36,0,0,0-.32-1.76,2.56,2.56,0,0,0-.87-1.06,3,3,0,0,0-1.27-.51,8.93,8.93,0,0,0-1.47-.12h-6.42Zm-4-10.28h10.79a8.44,8.44,0,0,1,5.61,1.61,5.65,5.65,0,0,1,1.86,4.5,6.69,6.69,0,0,1-.47,2.67,6,6,0,0,1-1.12,1.7,3.91,3.91,0,0,1-1.24.94c-.41.19-.71.32-.91.39v.05a4.15,4.15,0,0,1,1.09.32,3.2,3.2,0,0,1,1.1.81,4.41,4.41,0,0,1,.84,1.44,6.35,6.35,0,0,1,.33,2.21,20,20,0,0,0,.3,3.62,4.77,4.77,0,0,0,.93,2.33h-4.24a3.73,3.73,0,0,1-.52-1.62c0-.59-.08-1.15-.08-1.7a16,16,0,0,0-.19-2.68,4.66,4.66,0,0,0-.69-1.86,3,3,0,0,0-1.38-1.09,5.89,5.89,0,0,0-2.23-.35h-5.82v9.3h-4Z"/><path class="cls-1" d="M137.44,448.75a6.31,6.31,0,0,0-3.12.73,5.93,5.93,0,0,0-2.13,1.94,8.69,8.69,0,0,0-1.22,2.77,13,13,0,0,0,0,6.33,8.54,8.54,0,0,0,1.22,2.76,6,6,0,0,0,2.13,2,6.31,6.31,0,0,0,3.12.73,6.22,6.22,0,0,0,3.11-.73,6,6,0,0,0,2.14-2,8.54,8.54,0,0,0,1.22-2.76,13,13,0,0,0,0-6.33,8.69,8.69,0,0,0-1.22-2.77,5.88,5.88,0,0,0-2.14-1.94,6.22,6.22,0,0,0-3.11-.73m0-3.23a10.5,10.5,0,0,1,4.54,1,10.11,10.11,0,0,1,3.4,2.56,11.35,11.35,0,0,1,2.14,3.77,14.48,14.48,0,0,1,0,9.14,11.45,11.45,0,0,1-2.14,3.77,9.93,9.93,0,0,1-3.4,2.54,11.43,11.43,0,0,1-9.08,0,10,10,0,0,1-3.4-2.54,11.45,11.45,0,0,1-2.14-3.77,14.48,14.48,0,0,1,0-9.14A11.35,11.35,0,0,1,129.5,449a10.21,10.21,0,0,1,3.4-2.56,10.54,10.54,0,0,1,4.54-1"/><polygon class="cls-1" points="158.46 446.06 162.64 446.06 172.95 462.7 173.03 462.7 173.03 446.06 176.78 446.06 176.78 468.65 172.61 468.65 162.33 452.04 162.23 452.04 162.23 468.65 158.46 468.65 158.46 446.06"/><polygon class="cls-1" points="188.1 446.06 192.28 446.06 202.6 462.7 202.65 462.7 202.65 446.06 206.42 446.06 206.42 468.65 202.24 468.65 191.96 452.04 191.87 452.04 191.87 468.65 188.1 468.65 188.1 446.06"/><polygon class="cls-1" points="217.81 446.06 234.08 446.06 234.08 449.48 221.76 449.48 221.76 455.39 233.16 455.39 233.16 458.62 221.76 458.62 221.76 465.23 234.29 465.23 234.29 468.65 217.81 468.65 217.81 446.06"/><polygon class="cls-1" points="244.39 446.06 249.96 446.06 256.19 463.74 256.26 463.74 262.33 446.06 267.83 446.06 267.83 468.65 264.07 468.65 264.07 451.22 264.01 451.22 257.74 468.65 254.47 468.65 248.21 451.22 248.15 451.22 248.15 468.65 244.39 468.65 244.39 446.06"/><polygon class="cls-1" points="279.25 446.06 295.52 446.06 295.52 449.48 283.22 449.48 283.22 455.39 294.61 455.39 294.61 458.62 283.22 458.62 283.22 465.23 295.74 465.23 295.74 468.65 279.25 468.65 279.25 446.06"/><polygon class="cls-1" points="305.79 446.06 309.96 446.06 320.27 462.7 320.34 462.7 320.34 446.06 324.11 446.06 324.11 468.65 319.93 468.65 309.65 452.04 309.55 452.04 309.55 468.65 305.79 468.65 305.79 446.06"/><polygon class="cls-1" points="333.27 446.06 351.55 446.06 351.55 449.48 344.37 449.48 344.37 468.65 340.42 468.65 340.42 449.48 333.27 449.48 333.27 446.06"/><polygon class="cls-4" points="351.65 148.21 187.39 148.21 187.39 0 351.65 148.21"/><polygon class="cls-1" points="382.44 87.23 375.16 69.06 367.58 87.23 364.87 94 360.4 104.68 352.44 104.69 370.48 59.86 379.81 59.86 399.78 104.68 389.69 104.68 385.16 94 382.44 87.23"/><path class="cls-1" d="M459.53,89.32a9.5,9.5,0,0,0,.84,4.21,7.69,7.69,0,0,0,2.35,2.87A10,10,0,0,0,466.2,98a16.8,16.8,0,0,0,4.24.53,13.19,13.19,0,0,0,4.22-.6,8.06,8.06,0,0,0,2.84-1.47,5.42,5.42,0,0,0,1.58-2.07,6.37,6.37,0,0,0,.48-2.39,5.13,5.13,0,0,0-1.12-3.66A6.4,6.4,0,0,0,476,86.71a54.52,54.52,0,0,0-5.33-1.6c-2-.49-4.54-1.14-7.52-2a15.56,15.56,0,0,1-4.62-1.9,10.86,10.86,0,0,1-2.92-2.62,8.62,8.62,0,0,1-1.54-3.07,12.45,12.45,0,0,1-.46-3.33A11.3,11.3,0,0,1,455,66.6a12,12,0,0,1,3.61-4,15.73,15.73,0,0,1,5.06-2.32,22.29,22.29,0,0,1,5.74-.76,22.56,22.56,0,0,1,6.35.87A15.94,15.94,0,0,1,481,63.06a12.68,12.68,0,0,1,3.59,4.31,12.85,12.85,0,0,1,1.32,5.95h-7.54c-.2-2.78-1.13-4.74-2.84-5.88a11.2,11.2,0,0,0-6.45-1.73,14.91,14.91,0,0,0-2.71.27,8.73,8.73,0,0,0-2.54.92,5.78,5.78,0,0,0-1.91,1.71,4.67,4.67,0,0,0-.73,2.71,4.59,4.59,0,0,0,1.4,3.59,8.87,8.87,0,0,0,3.72,2c.16,0,.79.21,1.9.51s2.34.65,3.71,1,2.71.69,4,1l2.8.76A12.17,12.17,0,0,1,482.39,82a11.14,11.14,0,0,1,4.21,5.78,12.94,12.94,0,0,1-1,9.56,12.41,12.41,0,0,1-3.9,4.21,17.49,17.49,0,0,1-5.48,2.38,26.49,26.49,0,0,1-6.27.75,25.94,25.94,0,0,1-7-.91,16,16,0,0,1-5.68-2.78,13.56,13.56,0,0,1-3.86-4.79,15.87,15.87,0,0,1-1.5-6.9Z"/><polygon class="cls-1" points="406.77 59.86 415.06 59.86 435.54 92.88 435.67 92.88 435.67 59.86 443.12 59.86 443.12 104.69 434.83 104.69 414.45 71.72 414.24 71.72 414.24 104.69 406.77 104.69 406.77 59.86"/><polygon class="cls-1" points="267.46 114.74 267.46 128.06 250.96 128.06 250.96 114.74 212.58 114.74 212.58 98.51 244.78 34.14 263.51 34.14 231.32 98.51 250.96 98.51 267.46 98.51 267.46 114.74"/></g></g></svg>